# xmcd
#
# Track frame offsets:
#	150
#	15704
#	36341
#	52805
#	70458
#	86183
#	103569
#	121789
#	145651
#	160413
#	182737
#	206646
#
# Disc length: 3003 seconds
#
# Revision: 0
# Processed by: cddbd v1.5.2PL0 Copyright (c) Steve Scherf et al.
# Submitted via: audiograbber 1.83.01
#
DISCID=a40bb90c
DTITLE=Sister Wives - Polygamy Blues
DYEAR=1900
DGENRE=Blues
TTITLE0=Let Me Drive
TTITLE1=Little By Little
TTITLE2=Gotta Keep Movin'
TTITLE3=Love Disease
TTITLE4=Can't Let Go
TTITLE5=My Kinda Guy
TTITLE6=Ladder
TTITLE7=Rock Me Baby
TTITLE8=Love Like This
TTITLE9=I'm A Handful
TTITLE10=Gimme Shelter
TTITLE11=So Happy Together
EXTD=
EXTT0=
EXTT1=
EXTT2=
EXTT3=
EXTT4=
EXTT5=
EXTT6=
EXTT7=
EXTT8=
EXTT9=
EXTT10=
EXTT11=Track is not listed on album cover and is silent for the first minute th
EXTT11=en plays "Happy Together"
PLAYORDER=
